<svg height="1246" width="720" xmlns="http://www.w3.org/2000/svg">
<rect height="1246" fill="#555" width="720"></rect>
<text fill="#7f7" font-family="Courier New" font-size="12" xml:space="preserve">
<tspan x="10" y="26">3 megabytes installed</tspan>
<tspan x="10" y="42"></tspan>
<tspan x="10" y="58">node_modules</tspan>
<tspan x="10" y="74">└─┬ gulp-json-sass@0.0.2 </tspan>
<tspan x="10" y="90">  ├─┬ chalk@0.5.1 </tspan>
<tspan x="10" y="106">  │ ├── ansi-styles@1.1.0 </tspan>
<tspan x="10" y="122">  │ ├── escape-string-regexp@1.0.5 </tspan>
<tspan x="10" y="138">  │ ├─┬ has-ansi@0.1.0 </tspan>
<tspan x="10" y="154">  │ │ └── ansi-regex@0.2.1 </tspan>
<tspan x="10" y="170">  │ ├── strip-ansi@0.3.0 </tspan>
<tspan x="10" y="186">  │ └── supports-color@0.2.0 </tspan>
<tspan x="10" y="202">  ├─┬ gulp-match@0.2.1 </tspan>
<tspan x="10" y="218">  │ └─┬ minimatch@1.0.0 </tspan>
<tspan x="10" y="234">  │   ├── lru-cache@2.7.3 </tspan>
<tspan x="10" y="250">  │   └── sigmund@1.0.1 </tspan>
<tspan x="10" y="266">  ├─┬ gulp-util@3.0.8 </tspan>
<tspan x="10" y="282">  │ ├── array-differ@1.0.0 </tspan>
<tspan x="10" y="298">  │ ├── array-uniq@1.0.3 </tspan>
<tspan x="10" y="314">  │ ├── beeper@1.1.1 </tspan>
<tspan x="10" y="330">  │ ├─┬ chalk@1.1.3 </tspan>
<tspan x="10" y="346">  │ │ ├── ansi-styles@2.2.1 </tspan>
<tspan x="10" y="362">  │ │ ├─┬ has-ansi@2.0.0 </tspan>
<tspan x="10" y="378">  │ │ │ └── ansi-regex@2.1.1 </tspan>
<tspan x="10" y="394">  │ │ ├── strip-ansi@3.0.1 </tspan>
<tspan x="10" y="410">  │ │ └── supports-color@2.0.0 </tspan>
<tspan x="10" y="426">  │ ├── dateformat@2.0.0 </tspan>
<tspan x="10" y="442">  │ ├─┬ fancy-log@1.3.0 </tspan>
<tspan x="10" y="458">  │ │ ├─┬ chalk@1.1.3 </tspan>
<tspan x="10" y="474">  │ │ │ ├── ansi-styles@2.2.1 </tspan>
<tspan x="10" y="490">  │ │ │ ├─┬ has-ansi@2.0.0 </tspan>
<tspan x="10" y="506">  │ │ │ │ └── ansi-regex@2.1.1 </tspan>
<tspan x="10" y="522">  │ │ │ ├── strip-ansi@3.0.1 </tspan>
<tspan x="10" y="538">  │ │ │ └── supports-color@2.0.0 </tspan>
<tspan x="10" y="554">  │ │ └── time-stamp@1.0.1 </tspan>
<tspan x="10" y="570">  │ ├─┬ gulplog@1.0.0 </tspan>
<tspan x="10" y="586">  │ │ └── glogg@1.0.0 </tspan>
<tspan x="10" y="602">  │ ├─┬ has-gulplog@0.1.0 </tspan>
<tspan x="10" y="618">  │ │ └── sparkles@1.0.0 </tspan>
<tspan x="10" y="634">  │ ├── lodash._reescape@3.0.0 </tspan>
<tspan x="10" y="650">  │ ├── lodash._reevaluate@3.0.0 </tspan>
<tspan x="10" y="666">  │ ├── lodash._reinterpolate@3.0.0 </tspan>
<tspan x="10" y="682">  │ ├─┬ lodash.template@3.6.2 </tspan>
<tspan x="10" y="698">  │ │ ├── lodash._basecopy@3.0.1 </tspan>
<tspan x="10" y="714">  │ │ ├── lodash._basetostring@3.0.1 </tspan>
<tspan x="10" y="730">  │ │ ├── lodash._basevalues@3.0.0 </tspan>
<tspan x="10" y="746">  │ │ ├── lodash._isiterateecall@3.0.9 </tspan>
<tspan x="10" y="762">  │ │ ├─┬ lodash.escape@3.2.0 </tspan>
<tspan x="10" y="778">  │ │ │ └── lodash._root@3.0.1 </tspan>
<tspan x="10" y="794">  │ │ ├─┬ lodash.keys@3.1.2 </tspan>
<tspan x="10" y="810">  │ │ │ ├── lodash._getnative@3.9.1 </tspan>
<tspan x="10" y="826">  │ │ │ ├── lodash.isarguments@3.1.0 </tspan>
<tspan x="10" y="842">  │ │ │ └── lodash.isarray@3.0.4 </tspan>
<tspan x="10" y="858">  │ │ ├── lodash.restparam@3.6.1 </tspan>
<tspan x="10" y="874">  │ │ └── lodash.templatesettings@3.1.1 </tspan>
<tspan x="10" y="890">  │ ├── minimist@1.2.0 </tspan>
<tspan x="10" y="906">  │ ├─┬ multipipe@0.1.2 </tspan>
<tspan x="10" y="922">  │ │ └─┬ duplexer2@0.0.2 </tspan>
<tspan x="10" y="938">  │ │   └─┬ readable-stream@1.1.14 </tspan>
<tspan x="10" y="954">  │ │     ├── isarray@0.0.1 </tspan>
<tspan x="10" y="970">  │ │     └── string_decoder@0.10.31 </tspan>
<tspan x="10" y="986">  │ ├── object-assign@3.0.0 </tspan>
<tspan x="10" y="1002">  │ ├── replace-ext@0.0.1 </tspan>
<tspan x="10" y="1018">  │ ├─┬ through2@2.0.3 </tspan>
<tspan x="10" y="1034">  │ │ ├─┬ readable-stream@2.2.9 </tspan>
<tspan x="10" y="1050">  │ │ │ ├── buffer-shims@1.0.0 </tspan>
<tspan x="10" y="1066">  │ │ │ ├── core-util-is@1.0.2 </tspan>
<tspan x="10" y="1082">  │ │ │ ├── inherits@2.0.3 </tspan>
<tspan x="10" y="1098">  │ │ │ ├── isarray@1.0.0 </tspan>
<tspan x="10" y="1114">  │ │ │ ├── process-nextick-args@1.0.7 </tspan>
<tspan x="10" y="1130">  │ │ │ ├── string_decoder@1.0.0 </tspan>
<tspan x="10" y="1146">  │ │ │ └── util-deprecate@1.0.2 </tspan>
<tspan x="10" y="1162">  │ │ └── xtend@4.0.1 </tspan>
<tspan x="10" y="1178">  │ └─┬ vinyl@0.5.3 </tspan>
<tspan x="10" y="1194">  │   ├── clone@1.0.2 </tspan>
<tspan x="10" y="1210">  │   └── clone-stats@0.0.1 </tspan>
<tspan x="10" y="1226">  └── through@2.3.8</tspan>
</text>
</svg>
